HIERARCHY
ROOT Hips
{
  OFFSET 51.9984 56.1128 7.81111
  CHANNELS 6 Xposition Yposition Zposition Zrotation Xrotation Yrotation
  JOINT spine
  {
    OFFSET 0 6.3926 0.367606
    CHANNELS 3 Zrotation Xrotation Yrotation
    JOINT spine1
    {
      OFFSET 0 9.17611 0
      CHANNELS 3 Zrotation Xrotation Yrotation
      JOINT spine2
      {
        OFFSET 0 8.79238 0
        CHANNELS 3 Zrotation Xrotation Yrotation
        JOINT Neck
        {
          OFFSET 0 22.5737 1.07624
          CHANNELS 3 Zrotation Xrotation Yrotation
          JOINT Head
          {
            OFFSET 0 6.82011 0
            CHANNELS 3 Zrotation Xrotation Yrotation
            End Site
            {
              OFFSET 0 16.5085 -5.44427
            }
          }
        }
        JOINT RightShoulder
        {
          OFFSET -3.70221 9.49509 -0.515508
          CHANNELS 3 Zrotation Xrotation Yrotation
          JOINT RightArm
          {
            OFFSET 0 12.4537 0
            CHANNELS 3 Zrotation Xrotation Yrotation
            JOINT RightArmRoll
            {
              OFFSET 0 6.28686 0
              CHANNELS 3 Zrotation Xrotation Yrotation
              JOINT RightForeArm
              {
                OFFSET 0 18.3114 0
                CHANNELS 3 Zrotation Xrotation Yrotation
                JOINT RightForeArmRoll
                {
                  OFFSET 0 7.05483 0
                  CHANNELS 3 Zrotation Xrotation Yrotation
                  JOINT RightHand
                  {
                    OFFSET 0 14.1575 0
                    CHANNELS 3 Zrotation Xrotation Yrotation
                    End Site
                    {
                      OFFSET 0 0 0
                    }
                  }
                }
              }
            }
          }
        }
        JOINT LeftShoulder
        {
          OFFSET 3.70221 9.49509 -0.515508
          CHANNELS 3 Zrotation Xrotation Yrotation
          JOINT LeftArm
          {
            OFFSET 0 12.4537 0
            CHANNELS 3 Zrotation Xrotation Yrotation
            JOINT LeftArmRoll
            {
              OFFSET 0 6.28686 0
              CHANNELS 3 Zrotation Xrotation Yrotation
              JOINT LeftForeArm
              {
                OFFSET 0 18.3114 0
                CHANNELS 3 Zrotation Xrotation Yrotation
                JOINT LeftForeArmRoll
                {
                  OFFSET 0 7.05483 0
                  CHANNELS 3 Zrotation Xrotation Yrotation
                  JOINT LeftHand
                  {
                    OFFSET 0 14.1575 0
                    CHANNELS 3 Zrotation Xrotation Yrotation
                    End Site
                    {
                      OFFSET 0 0 0
                    }
                  }
                }
              }
            }
          }
        }
      }
    }
  }
  JOINT RightUpLeg
  {
    OFFSET -5.66616 -1.03903 -0.87161
    CHANNELS 3 Zrotation Xrotation Yrotation
    JOINT RightUpLegRoll
    {
      OFFSET 0 16.6005 0
      CHANNELS 3 Zrotation Xrotation Yrotation
      JOINT RightLeg
      {
        OFFSET 0 -20.5572 0
        CHANNELS 3 Zrotation Xrotation Yrotation
        JOINT RightLegRoll
        {
          OFFSET 0 20.6244 0
          CHANNELS 3 Zrotation Xrotation Yrotation
          JOINT RightFoot
          {
            OFFSET 0 17.1664 0
            CHANNELS 3 Zrotation Xrotation Yrotation
            JOINT RightToeBase
            {
              OFFSET 0 14.3502 0
              CHANNELS 3 Zrotation Xrotation Yrotation
              End Site
              {
                OFFSET 0.00608252 6.94971 -0.80106
              }
            }
          }
        }
      }
    }
  }
  JOINT LeftUpLeg
  {
    OFFSET 5.66616 -1.03903 -0.87161
    CHANNELS 3 Zrotation Xrotation Yrotation
    JOINT LeftUpLegRoll
    {
      OFFSET 0 16.6006 0
      CHANNELS 3 Zrotation Xrotation Yrotation
      JOINT LeftLeg
      {
        OFFSET 0 20.5571 0
        CHANNELS 3 Zrotation Xrotation Yrotation
        JOINT LeftLegRoll
        {
          OFFSET 0 20.8151 0
          CHANNELS 3 Zrotation Xrotation Yrotation
          JOINT LeftFoot
          {
            OFFSET 0 16.9757 0
            CHANNELS 3 Zrotation Xrotation Yrotation
            JOINT LeftToeBase
            {
              OFFSET 0 14.3502 0
              CHANNELS 3 Zrotation Xrotation Yrotation
              End Site
              {
                OFFSET -0.0272592 6.94971 -0.801061
              }
            }
          }
        }
      }
    }
  }
}
MOTION
Frames: 11
Frame Time: 0.00208333
53.9417 86.037 46.3066 -0.682599 -1.84863 1.60729 -0.19319 -1.82294 -0.243124 -0.394652 0.367543 -0.470209 -0.389192 2.01257 -0.463766 1.2151 8.98892 1.35479 -0.0714701 2.45407 1.71403 61.3769 -1.38733 -1.10237 109.871 17.1561 -0.544341 1.01324e-006 4.0695e-008 -3.128e-006 16.1855 6.70759 -1.10357 5.57134e-006 -6.02163e-006 -3 8.029 -4.95142 0.697705 -55.0908 -5.51817 3.185 -113.768 16.0202 5.65459 -1.95194e-006 7.71242e-007 3.16968e-006 -13.9848 6.36326 1.16353 8.9933e-007 5.27647e-006 3 -8.0289 -4.95144 -0.697707 177.128 -0.648125 0.404845 180 7.01553e-015 178.948 176.358 5.95057 179.784 3.26372e-006 1.72386e-006 0.0515598 -18.0867 67.3461 18.9968 8.12712 25.2332 -3.48374 -176.376 -1.7143 1.72247 4.54188e-006 -4.6773e-006 -1.12261 -0.445588 -5.13998 0.436133 1.25027e-006 -4.00694e-006 -0.0624146 19.0811 68.452 -19.902 -8.13649 25.2327 3.48774 
53.9474 86.0531 46.3123 -0.681984 -1.85069 1.61075 -0.193778 -1.82254 -0.243866 -0.394267 0.36764 -0.470726 -0.388801 2.01267 -0.464289 1.2173 8.99339 1.35426 -0.0748981 2.45237 1.71431 61.3764 -1.38732 -1.10234 109.862 17.1415 -0.55543 1.01324e-006 4.0695e-008 -3.128e-006 16.1909 6.75648 -1.1108 5.57134e-006 -6.02163e-006 -3 8.029 -4.95142 0.697705 -55.0885 -5.51125 3.18023 -113.766 16.0143 5.64704 -1.95194e-006 7.71242e-007 3.16968e-006 -13.9807 6.36959 1.16448 8.9933e-007 5.27647e-006 3 -8.0289 -4.95144 -0.697707 177.13 -0.653564 0.399017 180 7.01553e-015 178.948 176.366 5.94844 179.784 3.26372e-006 1.72386e-006 0.0515011 -18.0879 67.3476 18.9988 8.12712 25.2332 -3.48374 -176.373 -1.74438 1.69432 4.54188e-006 -4.6773e-006 -1.1215 -0.487791 -5.10328 0.431399 1.25027e-006 -4.00694e-006 -0.0600665 19.0529 68.4197 -19.8758 -8.13649 25.2327 3.48774 
53.9501 86.0396 46.3137 -0.68139 -1.85285 1.61432 -0.194396 -1.82213 -0.244633 -0.393848 0.367725 -0.471212 -0.388375 2.01275 -0.464782 1.21938 8.99811 1.35369 -0.0783111 2.45062 1.71453 61.3759 -1.3873 -1.1023 109.854 17.1265 -0.567603 1.01324e-006 4.0695e-008 -3.128e-006 16.1967 6.80759 -1.11836 5.57134e-006 -6.02163e-006 -3 8.029 -4.95142 0.697705 -55.0865 -5.50387 3.17516 -113.764 16.0084 5.63939 -1.95194e-006 7.71242e-007 3.16968e-006 -13.9766 6.37624 1.16549 8.9933e-007 5.27647e-006 3 -8.0289 -4.95144 -0.697707 177.134 -0.659423 0.391745 180 7.01553e-015 178.948 176.377 5.94596 179.782 3.26372e-006 1.72386e-006 0.0514139 -18.0895 67.3494 19.001 8.12712 25.2332 -3.48374 -176.369 -1.7756 1.66517 4.54188e-006 -4.6773e-006 -1.12035 -0.531463 -5.06519 0.426496 1.25027e-006 -4.00694e-006 -0.0576341 19.0237 68.3862 -19.8488 -8.13649 25.2327 3.48774 
53.9334 86.0526 46.3067 -0.680811 -1.85509 1.61797 -0.195037 -1.82172 -0.245419 -0.393405 0.367801 -0.471677 -0.387927 2.01283 -0.465255 1.22137 9.003 1.35308 -0.0817137 2.44884 1.71472 61.3754 -1.38727 -1.10227 109.846 17.1112 -0.580533 1.01324e-006 4.0695e-008 -3.128e-006 16.2029 6.86023 -1.12613 5.57134e-006 -6.02163e-006 -3 8.029 -4.95142 0.697705 -55.0846 -5.49618 3.16989 -113.762 16.0023 5.63165 -1.95194e-006 7.71242e-007 3.16968e-006 -13.9725 6.38311 1.16652 8.9933e-007 5.27647e-006 3 -8.0289 -4.95144 -0.697707 177.138 -0.665576 0.383464 180 7.01553e-015 178.947 176.388 5.94319 179.781 3.26372e-006 1.72386e-006 0.0513067 -18.0912 67.3514 19.0034 8.12712 25.2332 -3.48374 -176.366 -1.80763 1.63531 4.54188e-006 -4.6773e-006 -1.11916 -0.576159 -5.02611 0.421474 1.25027e-006 -4.00694e-006 -0.0551427 18.994 68.3519 -19.8213 -8.13649 25.2327 3.48774 
53.9363 86.0381 46.3114 -0.68024 -1.85738 1.62165 -0.195689 -1.8213 -0.246214 -0.392949 0.367872 -0.472129 -0.387465 2.0129 -0.465715 1.22331 9.00798 1.35246 -0.0851104 2.44703 1.71488 61.3749 -1.38724 -1.10222 109.838 17.0957 -0.593894 1.01324e-006 4.0695e-008 -3.128e-006 16.2093 6.91375 -1.13404 5.57134e-006 -6.02163e-006 -3 8.029 -4.95142 0.697705 -55.0828 -5.4883 3.1645 -113.76 15.9961 5.62388 -1.95194e-006 7.71242e-007 3.16968e-006 -13.9683 6.39011 1.16758 8.9933e-007 5.27647e-006 3 -8.0289 -4.95144 -0.697707 177.143 -0.671897 0.374605 180 7.01553e-015 178.947 176.401 5.94031 179.78 3.26372e-006 1.72386e-006 0.051188 -18.093 67.3536 19.006 8.12712 25.2332 -3.48374 -176.362 -1.84012 1.60504 4.54188e-006 -4.6773e-006 -1.11796 -0.621438 -4.98647 0.416385 1.25027e-006 -4.00694e-006 -0.0526176 18.9639 68.3172 -19.7935 -8.13649 25.2327 3.48774 
53.9452 86.0481 46.3149 -0.67967 -1.85968 1.62535 -0.196345 -1.82089 -0.247012 -0.392489 0.367942 -0.472578 -0.387 2.01297 -0.466172 1.22524 9.01299 1.35183 -0.0885055 2.44522 1.71504 61.3744 -1.3872 -1.10218 109.83 17.0802 -0.607363 1.01324e-006 4.0695e-008 -3.128e-006 16.2157 6.96749 -1.14197 5.57134e-006 -6.02163e-006 -3 8.029 -4.95142 0.697705 -55.081 -5.48037 3.15909 -113.758 15.99 5.61609 -1.95194e-006 7.71242e-007 3.16968e-006 -13.9642 6.39714 1.16864 8.9933e-007 5.27647e-006 3 -8.0289 -4.95144 -0.697707 177.147 -0.678261 0.365602 180 7.01552e-015 178.947 176.414 5.93735 179.779 3.26372e-006 1.72386e-006 0.0510664 -18.0948 67.3557 19.0085 8.12712 25.2332 -3.48374 -176.359 -1.87272 1.57468 4.54188e-006 -4.6773e-006 -1.11676 -0.666857 -4.9467 0.41128 1.25027e-006 -4.00694e-006 -0.050084 18.9339 68.2823 -19.7657 -8.13649 25.2327 3.48774 
53.9519 85.9142 46.3179 -0.679096 -1.86195 1.62903 -0.196994 -1.82047 -0.247805 -0.392036 0.368015 -0.473034 -0.386541 2.01304 -0.466635 1.2272 9.01795 1.35121 -0.0919037 2.44342 1.7152 61.3739 -1.38717 -1.10214 109.822 17.0647 -0.620612 1.01324e-006 4.0695e-008 -3.128e-006 16.2221 7.02079 -1.14985 5.57134e-006 -6.02163e-006 -3 8.029 -4.95142 0.697705 -55.0792 -5.47253 3.15373 -113.756 15.9838 5.60833 -1.95194e-006 7.71242e-007 3.16968e-006 -13.9601 6.40411 1.16969 8.9933e-007 5.27647e-006 3 -8.0289 -4.95144 -0.697707 177.152 -0.68454 0.356888 180 7.01552e-015 178.947 176.426 5.9345 179.778 3.26372e-006 1.72386e-006 0.0509506 -18.0966 67.3578 19.011 8.12712 25.2332 -3.48374 -176.355 -1.9051 1.54451 4.54188e-006 -4.6773e-006 -1.11556 -0.711974 -4.9072 0.40621 1.25027e-006 -4.00694e-006 -0.0475673 18.9041 68.2477 -19.7382 -8.13649 25.2327 3.48774 
53.9799 85.9266 46.3008 -0.678511 -1.86417 1.63266 -0.197628 -1.82006 -0.248585 -0.3916 0.368093 -0.473505 -0.386099 2.01312 -0.467114 1.22922 9.02279 1.35061 -0.0953092 2.44164 1.7154 61.3734 -1.38715 -1.1021 109.814 17.0495 -0.633316 1.01324e-006 4.0695e-008 -3.128e-006 16.2282 7.07299 -1.15758 5.57134e-006 -6.02163e-006 -3 8.029 -4.95142 0.697705 -55.0773 -5.46493 3.14852 -113.753 15.9778 5.60062 -1.95194e-006 7.71242e-007 3.16968e-006 -13.956 6.41092 1.17072 8.9933e-007 5.27647e-006 3 -8.0289 -4.95144 -0.697707 177.156 -0.690609 0.348895 180 7.01552e-015 178.947 176.437 5.93181 179.777 3.26372e-006 1.72386e-006 0.0508491 -18.0982 67.3598 19.0134 8.12712 25.2332 -3.48374 -176.352 -1.9369 1.51485 4.54188e-006 -4.6773e-006 -1.11439 -0.756348 -4.8684 0.401225 1.25027e-006 -4.00694e-006 -0.0450927 18.8749 68.2136 -19.7112 -8.13649 25.2327 3.48774 
53.9369 86.2023 46.2947 -0.677909 -1.8663 1.6362 -0.198237 -1.81965 -0.249345 -0.391191 0.368182 -0.474 -0.385684 2.01321 -0.467616 1.23133 9.02744 1.35005 -0.0987266 2.43991 1.71564 61.3729 -1.38713 -1.10207 109.806 17.0346 -0.645151 1.01324e-006 4.0695e-008 -3.128e-006 16.234 7.12343 -1.16505 5.57134e-006 -6.02163e-006 -3 8.029 -4.95142 0.697705 -55.0752 -5.45769 3.14354 -113.752 15.9718 5.593 -1.95194e-006 7.71242e-007 3.16968e-006 -13.9519 6.41747 1.17171 8.9933e-007 5.27647e-006 3 -8.0289 -4.95144 -0.697707 177.159 -0.696342 0.342057 180 7.01552e-015 178.947 176.447 5.92944 179.776 3.26372e-006 1.72386e-006 0.0507704 -18.0997 67.3615 19.0155 8.12712 25.2332 -3.48374 -176.349 -1.96778 1.48599 4.54188e-006 -4.6773e-006 -1.11325 -0.799537 -4.83072 0.396377 1.25027e-006 -4.00694e-006 -0.0426856 18.8466 68.1804 -19.685 -8.13649 25.2327 3.48774 
53.9054 86.227 46.3081 -0.677284 -1.86831 1.63961 -0.198812 -1.81925 -0.250077 -0.390819 0.368284 -0.474528 -0.385306 2.01331 -0.468151 1.23358 9.03181 1.34955 -0.10216 2.43823 1.71594 61.3724 -1.38712 -1.10204 109.797 17.0203 -0.655792 1.01324e-006 4.0695e-008 -3.128e-006 16.2393 7.17144 -1.17218 5.57134e-006 -6.02163e-006 -3 8.029 -4.95142 0.697705 -55.0728 -5.45095 3.13889 -113.75 15.966 5.58551 -1.95194e-006 7.71242e-007 3.16968e-006 -13.9478 6.42367 1.17265 8.9933e-007 5.27647e-006 3 -8.0289 -4.95144 -0.697707 177.161 -0.701612 0.336806 180 7.01552e-015 178.947 176.455 5.92749 179.775 3.26372e-006 1.72386e-006 0.0507232 -18.1008 67.3629 19.0174 8.12712 25.2332 -3.48374 -176.346 -1.9974 1.45825 4.54188e-006 -4.6773e-006 -1.11215 -0.8411 -4.79459 0.391717 1.25027e-006 -4.00694e-006 -0.0403713 18.8194 68.1485 -19.6598 -8.13649 25.2327 3.48774 
53.9577 85.9308 46.313 -0.676629 -1.87017 1.64288 -0.199344 -1.81886 -0.250773 -0.390494 0.368404 -0.4751 -0.384974 2.01343 -0.468728 1.236 9.03585 1.3491 -0.105615 2.43663 1.71632 61.3719 -1.38712 -1.10202 109.789 17.0066 -0.664913 1.01324e-006 4.0695e-008 -3.128e-006 16.2439 7.21637 -1.17887 5.57134e-006 -6.02163e-006 -3 8.029 -4.95142 0.697705 -55.0701 -5.44486 3.13464 -113.748 15.9604 5.57816 -1.95194e-006 7.71242e-007 3.16968e-006 -13.9437 6.42943 1.17352 8.9933e-007 5.27647e-006 3 -8.0289 -4.95144 -0.697707 177.162 -0.706295 0.333575 180 7.01552e-015 178.947 176.46 5.92604 179.774 3.26372e-006 1.72386e-006 0.0507161 -18.1016 67.3639 19.019 8.12712 25.2332 -3.48374 -176.343 -2.02542 1.43193 4.54188e-006 -4.6773e-006 -1.11112 -0.880596 -4.76041 0.387296 1.25027e-006 -4.00694e-006 -0.0381751 18.7936 68.1182 -19.636 -8.13649 25.2327 3.48774 
